HIERARCHY
ROOT Hips
{
  OFFSET 5.72205e-005 65.662 3.42586
  CHANNELS 6 Xposition Yposition Zposition Zrotation Xrotation Yrotation
  JOINT Chest
  {
    OFFSET 0 8.7983 -4.7612
    CHANNELS 3 Zrotation Xrotation Yrotation
    JOINT Chest2
    {
      OFFSET 0 8.0291 0.4195
      CHANNELS 3 Zrotation Xrotation Yrotation
      JOINT Chest3
      {
        OFFSET 0 9.9351 -2.2114
        CHANNELS 3 Zrotation Xrotation Yrotation
        JOINT Neck
        {
          OFFSET 0 22.3885 -0.4656
          CHANNELS 3 Zrotation Xrotation Yrotation
          JOINT Head
          {
            OFFSET -0.0001 12.643 3.4389
            CHANNELS 3 Zrotation Xrotation Yrotation
            End Site
            {
              OFFSET 0.0001 17.6655 0.5274
            }
          }
        }
        JOINT LeftCollar
        {
          OFFSET 2.2603 21.606 7.4023
          CHANNELS 3 Zrotation Xrotation Yrotation
          JOINT LeftShoulder
          {
            OFFSET 13.5163 -1.1332 -5.0146
            CHANNELS 3 Zrotation Xrotation Yrotation
            JOINT LeftElbow
            {
              OFFSET -0.0995 -28.05 -0.2431
              CHANNELS 3 Zrotation Xrotation Yrotation
              JOINT LeftWrist
              {
                OFFSET 0.0679 -23.3996 -0.1402
                CHANNELS 3 Zrotation Xrotation Yrotation
                JOINT LeftFinger1
                {
                  OFFSET 0.7932 -9.069 2.5189
                  CHANNELS 3 Zrotation Xrotation Yrotation
                  JOINT LeftFinger11
                  {
                    OFFSET -0.8272 -3.3923 0.5977
                    CHANNELS 3 Zrotation Xrotation Yrotation
                    JOINT LeftFinger12
                    {
                      OFFSET -0.5649 -2.3158 0.4082
                      CHANNELS 3 Zrotation Xrotation Yrotation
                      End Site
                      {
                        OFFSET -0.4919 -1.6479 0.2673
                      }
                    }
                  }
                }
                JOINT LeftFinger2
                {
                  OFFSET 0.9159 -9.2044 0.2193
                  CHANNELS 3 Zrotation Xrotation Yrotation
                  JOINT LeftFinger21
                  {
                    OFFSET 0.0117 -4.1944 -0.0248
                    CHANNELS 3 Zrotation Xrotation Yrotation
                    JOINT LeftFinger22
                    {
                      OFFSET 0.0071 -2.3249 -0.0142
                      CHANNELS 3 Zrotation Xrotation Yrotation
                      End Site
                      {
                        OFFSET -0.1475 -2.0882 0.0028
                      }
                    }
                  }
                }
                JOINT LeftFinger3
                {
                  OFFSET 0.6113 -8.7231 -2.0637
                  CHANNELS 3 Zrotation Xrotation Yrotation
                  JOINT LeftFinger31
                  {
                    OFFSET -0.1927 -3.8059 -0.2383
                    CHANNELS 3 Zrotation Xrotation Yrotation
                    JOINT LeftFinger32
                    {
                      OFFSET -0.1091 -2.1688 -0.1362
                      CHANNELS 3 Zrotation Xrotation Yrotation
                      End Site
                      {
                        OFFSET -0.2358 -1.9176 -0.0906
                      }
                    }
                  }
                }
                JOINT LeftFinger4
                {
                  OFFSET -0.6151 -8.0947 -3.5641
                  CHANNELS 3 Zrotation Xrotation Yrotation
                  JOINT LeftFinger41
                  {
                    OFFSET -0.4882 -2.341 -0.6462
                    CHANNELS 3 Zrotation Xrotation Yrotation
                    JOINT LeftFinger42
                    {
                      OFFSET -0.3575 -1.7167 -0.4742
                      CHANNELS 3 Zrotation Xrotation Yrotation
                      End Site
                      {
                        OFFSET -0.4187 -1.5237 -0.3496
                      }
                    }
                  }
                }
                JOINT LeftFinger0
                {
                  OFFSET -1.42 -1.8761 1.4223
                  CHANNELS 3 Zrotation Xrotation Yrotation
                  JOINT LeftFinger01
                  {
                    OFFSET -1.1471 -3.4929 2.6334
                    CHANNELS 3 Zrotation Xrotation Yrotation
                    JOINT LeftFinger02
                    {
                      OFFSET -0.823 -2.3 1.6571
                      CHANNELS 3 Zrotation Xrotation Yrotation
                      End Site
                      {
                        OFFSET -0.5822 -1.6914 1.1582
                      }
                    }
                  }
                }
              }
            }
          }
        }
        JOINT RightCollar
        {
          OFFSET -2.2603 21.606 7.4023
          CHANNELS 3 Zrotation Xrotation Yrotation
          JOINT RightShoulder
          {
            OFFSET -13.5187 -1.1334 -5.0155
            CHANNELS 3 Zrotation Xrotation Yrotation
            JOINT RightElbow
            {
              OFFSET 0.0994 -28.0499 -0.2431
              CHANNELS 3 Zrotation Xrotation Yrotation
              JOINT RightWrist
              {
                OFFSET -0.0679 -23.3996 -0.1402
                CHANNELS 3 Zrotation Xrotation Yrotation
                JOINT RightFinger1
                {
                  OFFSET -0.7932 -9.0691 2.5189
                  CHANNELS 3 Zrotation Xrotation Yrotation
                  JOINT RightFinger11
                  {
                    OFFSET 0.8272 -3.3923 0.5977
                    CHANNELS 3 Zrotation Xrotation Yrotation
                    JOINT RightFinger12
                    {
                      OFFSET 0.565 -2.3158 0.4082
                      CHANNELS 3 Zrotation Xrotation Yrotation
                      End Site
                      {
                        OFFSET 0.4919 -1.6479 0.2673
                      }
                    }
                  }
                }
                JOINT RightFinger2
                {
                  OFFSET -0.916 -9.2044 0.2193
                  CHANNELS 3 Zrotation Xrotation Yrotation
                  JOINT RightFinger21
                  {
                    OFFSET -0.0117 -4.1944 -0.0248
                    CHANNELS 3 Zrotation Xrotation Yrotation
                    JOINT RightFinger22
                    {
                      OFFSET -0.0071 -2.3249 -0.0142
                      CHANNELS 3 Zrotation Xrotation Yrotation
                      End Site
                      {
                        OFFSET 0.1475 -2.0882 0.0028
                      }
                    }
                  }
                }
                JOINT RightFinger3
                {
                  OFFSET -0.6113 -8.7231 -2.0637
                  CHANNELS 3 Zrotation Xrotation Yrotation
                  JOINT RightFinger31
                  {
                    OFFSET 0.1927 -3.8059 -0.2383
                    CHANNELS 3 Zrotation Xrotation Yrotation
                    JOINT RightFinger32
                    {
                      OFFSET 0.1091 -2.1688 -0.1362
                      CHANNELS 3 Zrotation Xrotation Yrotation
                      End Site
                      {
                        OFFSET 0.2358 -1.9176 -0.0906
                      }
                    }
                  }
                }
                JOINT RightFinger4
                {
                  OFFSET 0.6151 -8.0947 -3.564
                  CHANNELS 3 Zrotation Xrotation Yrotation
                  JOINT RightFinger41
                  {
                    OFFSET 0.4882 -2.341 -0.6462
                    CHANNELS 3 Zrotation Xrotation Yrotation
                    JOINT RightFinger42
                    {
                      OFFSET 0.3574 -1.7166 -0.4742
                      CHANNELS 3 Zrotation Xrotation Yrotation
                      End Site
                      {
                        OFFSET 0.4187 -1.5237 -0.3496
                      }
                    }
                  }
                }
                JOINT RightFinger0
                {
                  OFFSET 1.4199 -1.8761 1.4221
                  CHANNELS 3 Zrotation Xrotation Yrotation
                  JOINT RightFinger01
                  {
                    OFFSET 1.1472 -3.4929 2.6336
                    CHANNELS 3 Zrotation Xrotation Yrotation
                    JOINT RightFinger02
                    {
                      OFFSET 0.8229 -2.3 1.6571
                      CHANNELS 3 Zrotation Xrotation Yrotation
                      End Site
                      {
                        OFFSET 0.5822 -1.6914 1.1582
                      }
                    }
                  }
                }
              }
            }
          }
        }
      }
    }
  }
  JOINT RightHip
  {
    OFFSET -9.412 3.9771 -0.7758
    CHANNELS 3 Zrotation Xrotation Yrotation
    JOINT RightKnee
    {
      OFFSET -0.7531 -40.938 0
      CHANNELS 3 Zrotation Xrotation Yrotation
      JOINT RightAnkle
      {
        OFFSET 0 -40.1986 0
        CHANNELS 3 Zrotation Xrotation Yrotation
        JOINT RightToe
        {
          OFFSET 0 -4.4182 9.239
          CHANNELS 3 Zrotation Xrotation Yrotation
          End Site
          {
            OFFSET 0 0 6.1981
          }
        }
      }
    }
  }
  JOINT LeftHip
  {
    OFFSET 9.4119 3.9773 -0.7758
    CHANNELS 3 Zrotation Xrotation Yrotation
    JOINT LeftKnee
    {
      OFFSET 0.7532 -40.9383 0
      CHANNELS 3 Zrotation Xrotation Yrotation
      JOINT LeftAnkle
      {
        OFFSET 0 -40.1986 0
        CHANNELS 3 Zrotation Xrotation Yrotation
        JOINT LeftToe
        {
          OFFSET 0 -4.4182 9.239
          CHANNELS 3 Zrotation Xrotation Yrotation
          End Site
          {
            OFFSET 0 0 6.1981
          }
        }
      }
    }
  }
}
MOTION
Frames:	6
Frame Time:	0.0333333
5.72205e-005 65.662 3.42586 0 0 -0 0 0 -0 0 0 -0 0 0 -0 0 0 -0 0 0 -0 0 0 -12.5014 88.1196 14.2451 10.6914 -0.00160068 -0.00239207 0.000740045 -8.4365e-005 7.00714e-005 -9.52055e-007 9.93923e-017 -1.98785e-016 -1.59028e-015 9.93923e-017 -5.96354e-016 -1.59028e-015 -9.93923e-017 -5.96354e-016 -1.59028e-015 9.93923e-017 -1.98785e-016 -1.59028e-015 -0.0128176 0.00232552 8.52707e-005 9.93923e-017 5.96354e-016 -0 9.93923e-017 -1.98785e-016 -1.59028e-015 -0.0160551 0.00299681 0.000857156 -2.48481e-016 0 3.18055e-015 9.93923e-017 -1.98785e-016 -1.59028e-015 -0.0125865 0.0031206 0.00282719 0 1.98785e-016 -0 9.93923e-017 -1.98785e-016 -1.59028e-015 9.93923e-017 -5.96354e-016 -1.59028e-015 -9.93923e-017 -5.96354e-016 -1.59028e-015 -0.865644 0.16582 7.03859 -88.0329 10.2057 -10.5567 0.0015593 -0.00248883 -0.000788628 7.87605e-005 4.10553e-005 1.24965e-005 -3.97569e-016 -7.95139e-016 3.18055e-015 -1.98785e-016 -3.97569e-016 3.18055e-015 -1.98785e-016 0 3.18055e-015 -3.97569e-016 -7.95139e-016 3.18055e-015 0.0129473 0.00231697 -8.70038e-005 9.93923e-017 -7.95139e-016 1.59028e-015 -3.97569e-016 -7.95139e-016 3.18055e-015 0.0163314 0.00303369 -0.000872333 3.97569e-016 7.95139e-016 -3.18055e-015 -3.97569e-016 -7.95139e-016 3.18055e-015 0.0145763 0.00367772 -0.00326275 9.93923e-017 -3.97569e-016 -0 -3.97569e-016 -7.95139e-016 3.18055e-015 -1.98785e-016 -3.97569e-016 3.18055e-015 -1.98785e-016 0 3.18055e-015 3.42482 1.32465 -0.0626183 0.000117508 0.717283 0.000978199 -3.4257 -2.04197 -0.0604716 6.47761e-025 0 -0 -3.42483 1.34017 0.0627307 -0.000193936 0.682302 -0.0013703 3.42574 -2.02253 0.0595886 -8.45714e-024 0 -7.40531e-025 
1.63317 25.1514 -0.552415 1.28592e-008 33.9971 -1.19686e-007 0.254564 -1.57584 -0.240087 0.502805 -3.15273 -0.473435 0.502805 -3.15272 -0.473436 1.28759e-005 -0.477434 -1.21704e-005 -3.57183e-007 -0.571785 1.52556e-007 -20.6556 16.9151 -45.2066 71.6721 7.43233 19.5005 -57.7525 -44.361 -34.1342 17.5294 -4.97883 27.2653 -5.99271e-007 -1.32688e-006 5.88088e-007 1.92769e-006 -2.03257e-006 -5.02409e-008 -2.0875e-006 -2.56097e-006 1.68189e-006 -5.99271e-007 -1.32688e-006 5.88088e-007 -0.0128104 0.00232085 8.56503e-005 -5.28326e-007 -1.82255e-006 -4.26328e-006 -5.99271e-007 -1.32688e-006 5.88088e-007 -0.0160699 0.00299582 0.000858908 1.81985e-006 -3.47628e-006 -2.51711e-006 -5.99271e-007 -1.32688e-006 5.88088e-007 -0.0126174 0.00312793 0.00282577 2.34771e-006 -2.50368e-006 1.74616e-006 -5.99271e-007 -1.32688e-006 5.88088e-007 1.92769e-006 -2.03257e-006 -5.02409e-008 -2.0875e-006 -2.56097e-006 1.68189e-006 7.97686 -7.11372 23.2549 -70.9717 -16.3229 9.76636 2.53479 -19.3139 0.501323 5.62463 -4.62955 -9.36164 -6.39069e-006 -5.64931e-007 -9.99596e-007 -5.03513e-006 -2.85412e-006 1.06389e-005 -9.65222e-007 -2.6864e-006 -4.73141e-006 -6.39069e-006 -5.64931e-007 -9.99596e-007 0.0129382 0.00231678 -6.87419e-005 -4.36597e-007 -4.24849e-006 2.62913e-006 -6.39069e-006 -5.64931e-007 -9.99596e-007 0.0163212 0.0030321 -0.0008671 -1.23019e-005 -7.5118e-006 7.05807e-006 -6.39069e-006 -5.64931e-007 -9.99596e-007 0.014551 0.0036742 -0.00324477 -3.02372e-006 -3.18558e-006 -6.80951e-006 -6.39069e-006 -5.64931e-007 -9.99596e-007 -5.03513e-006 -2.85412e-006 1.06389e-005 -9.65222e-007 -2.6864e-006 -4.73141e-006 -8.3296 -32.5417 -19.4626 -172.84 75.3059 170.25 18.0927 38.4429 -23.6893 7.33473e-006 1.58711e-006 -9.87333e-007 8.29272 -32.5261 19.4172 173.003 75.3458 -170.399 -18.0215 38.2706 23.618 -2.07042e-006 -3.01931e-006 -6.30514e-007 
1.63318 25.1342 0.0305896 -7.2191e-008 32.5632 3.34773e-008 0.249897 -0.980723 -0.244946 0.495703 -1.96248 -0.485715 0.495703 -1.96248 -0.485714 -2.39655e-005 -0.948858 2.33693e-005 -2.51326e-008 -0.824722 -6.61819e-009 -20.0044 16.4973 -45.1716 71.6721 7.43236 19.5005 -59.2607 -44.7697 -35.2541 18.7322 -5.1892 27.0045 1.31756e-006 -2.63741e-006 5.45692e-007 -1.59028e-015 -6.36111e-015 -6.36111e-015 1.01998e-006 1.34498e-007 1.20778e-006 1.31756e-006 -2.63741e-006 5.45692e-007 -0.0128173 0.0023401 9.38885e-005 1.59028e-015 -6.36111e-015 -6.36111e-015 1.31756e-006 -2.63741e-006 5.45692e-007 -0.0160647 0.00299421 0.000859311 3.05334e-006 7.74898e-006 2.15076e-006 1.31756e-006 -2.63741e-006 5.45692e-007 -0.012622 0.00313023 0.00284323 -6.36111e-015 -3.18055e-015 -0 1.31756e-006 -2.63741e-006 5.45692e-007 -1.59028e-015 -6.36111e-015 -6.36111e-015 1.01998e-006 1.34498e-007 1.20778e-006 7.09995 -7.64551 22.0693 -70.3741 -17.163 9.98105 2.78643 -20.1165 0.609791 4.49488 -4.6159 -10.088 3.18055e-015 -6.36111e-015 1.27222e-014 3.18055e-015 6.36111e-015 -0 -6.36111e-015 0 -3.18055e-015 3.18055e-015 -6.36111e-015 1.27222e-014 0.0129398 0.00231771 -9.17511e-005 -4.55311e-006 3.54357e-006 -1.52775e-006 3.18055e-015 -6.36111e-015 1.27222e-014 0.0163274 0.00303655 -0.000872897 -3.18055e-015 6.36111e-015 -3.18055e-015 3.18055e-015 -6.36111e-015 1.27222e-014 0.0145484 0.00366581 -0.00325671 -9.54166e-015 6.36111e-015 -1.59028e-014 3.18055e-015 -6.36111e-015 1.27222e-014 3.18055e-015 6.36111e-015 -0 -6.36111e-015 0 -3.18055e-015 -8.06773 -30.5032 -19.0197 -172.693 76.088 170.154 18.0654 38.4768 -23.6533 -7.41663e-006 4.81034e-006 -2.82434e-007 8.03089 -30.4875 18.9739 172.864 76.1288 -170.312 -17.9942 38.3047 23.5821 4.10616e-007 -3.88915e-008 7.35905e-007 
1.6332 25.1222 0.614535 5.36223e-009 31.1256 -1.03735e-008 0.245192 -0.383782 -0.249622 0.488732 -0.768621 -0.497621 0.488732 -0.768634 -0.497621 0.000188153 -1.42135 -0.000196562 4.79453e-008 -1.07788 -9.43952e-008 -19.3534 16.0791 -45.1321 71.6721 7.43236 19.5005 -60.7929 -45.1577 -36.3985 19.9368 -5.40548 26.7476 -1.02093e-006 -1.36362e-007 -1.2074e-006 -1.30723e-006 -2.61376e-007 -5.53142e-007 0 0 -3.18055e-015 -1.02093e-006 -1.36362e-007 -1.2074e-006 -0.0128126 0.00231214 8.12736e-005 -3.84341e-006 1.00026e-005 4.46688e-006 -1.02093e-006 -1.36362e-007 -1.2074e-006 -0.0160447 0.00299374 0.000848684 -3.18055e-015 -1.59028e-014 -6.36111e-015 -1.02093e-006 -1.36362e-007 -1.2074e-006 -0.0125415 0.00311453 0.00281412 -1.90917e-006 2.04289e-006 3.4568e-008 -1.02093e-006 -1.36362e-007 -1.2074e-006 -1.30723e-006 -2.61376e-007 -5.53142e-007 0 0 -3.18055e-015 6.2088 -8.16108 20.8708 -69.7795 -17.993 10.2033 3.04913 -20.9298 0.723338 3.36307 -4.58784 -10.8155 -3.55691e-006 -5.20193e-006 5.34707e-006 -3.05877e-006 7.28732e-006 -8.95545e-006 3.18055e-015 3.18055e-015 -6.36111e-015 -3.55691e-006 -5.20193e-006 5.34707e-006 0.0129882 0.00233052 -0.000100063 5.51418e-006 3.06015e-006 6.26077e-006 -3.55691e-006 -5.20193e-006 5.34707e-006 0.0163306 0.00303396 -0.00088347 -8.95591e-006 3.1774e-007 9.0794e-006 -3.55691e-006 -5.20193e-006 5.34707e-006 0.014554 0.00368389 -0.00327256 9.54166e-015 0 1.27222e-014 -3.55691e-006 -5.20193e-006 5.34707e-006 -3.05877e-006 7.28732e-006 -8.95545e-006 3.18055e-015 3.18055e-015 -6.36111e-015 -7.82451 -28.4514 -18.5935 -172.531 76.8708 170.041 18.0381 38.5101 -23.6176 -3.97569e-015 1.95124e-008 3.18055e-015 7.78777 -28.435 18.5473 172.711 76.9129 -170.209 -17.9669 38.3383 23.5464 1.67616e-006 5.23017e-006 1.42208e-007 
1.63321 25.1155 1.19926 4.68169e-008 29.6848 -1.89423e-007 0.240505 0.214421 -0.254165 0.481957 0.427766 -0.509225 0.481957 0.427751 -0.509224 0.000435009 -1.89323 -0.000476596 -9.46512e-008 -1.33123 -5.15442e-008 -18.7032 15.6622 -45.0874 71.6721 7.43236 19.5005 -62.3483 -45.5243 -37.5665 21.143 -5.62748 26.4948 -1.59028e-015 -1.27222e-014 -0 4.19418e-007 -2.03545e-007 1.79454e-006 -3.18055e-015 3.18055e-015 -0 -1.59028e-015 -1.27222e-014 -0 -0.0128353 0.00231844 8.4815e-005 4.19233e-007 -5.23716e-007 1.79456e-006 -1.59028e-015 -1.27222e-014 -0 -0.0160445 0.00298113 0.000857606 1.59028e-015 0 9.54166e-015 -1.59028e-015 -1.27222e-014 -0 -0.012596 0.00311637 0.0028285 -3.18055e-015 -9.54166e-015 -3.18055e-015 -1.59028e-015 -1.27222e-014 -0 4.19418e-007 -2.03545e-007 1.79454e-006 -3.18055e-015 3.18055e-015 -0 5.30364 -8.65805 19.6597 -69.2252 -18.7857 10.4213 3.35341 -21.7866 0.843858 2.22974 -4.54537 -11.5435 -2.06564e-006 -1.23283e-007 -2.08046e-006 -9.54166e-015 0 -0 9.54166e-015 -3.18055e-015 3.18055e-015 -2.06564e-006 -1.23283e-007 -2.08046e-006 0.0129484 0.00232269 -9.5889e-005 3.18055e-015 0 6.36111e-015 -2.06564e-006 -1.23283e-007 -2.08046e-006 0.016353 0.0030362 -0.000883428 -7.06225e-031 6.36111e-015 6.36111e-015 -2.06564e-006 -1.23283e-007 -2.08046e-006 0.0146075 0.0036924 -0.00327959 -9.70273e-007 5.98258e-007 1.47873e-005 -2.06564e-006 -1.23283e-007 -2.08046e-006 -9.54166e-015 0 -0 9.54166e-015 -3.18055e-015 3.18055e-015 -7.59885 -26.3866 -18.1826 -172.349 77.655 169.909 18.011 38.5428 -23.5821 -4.11669e-007 -1.98145e-008 -7.35518e-007 7.56188 -26.3717 18.1359 172.542 77.6966 -170.089 -17.9398 38.3711 23.5109 5.56597e-015 2.00522e-008 1.59028e-015 
1.63322 25.114 1.78461 1.10752e-007 28.2413 -1.23214e-007 0.235986 0.814177 -0.258738 0.47572 1.62728 -0.520909 0.475721 1.62729 -0.520909 -7.70567e-005 -2.367 8.86018e-005 -5.81234e-008 -1.58479 3.3072e-007 -18.0544 15.2439 -45.0375 71.6721 7.43236 19.5005 -63.9258 -45.8687 -38.7572 22.3504 -5.85514 26.2463 1.02231e-006 1.39752e-007 1.20709e-006 -5.13139e-006 -1.42053e-005 -8.12963e-006 1.28812e-006 -2.71211e-006 5.66742e-007 1.02231e-006 1.39752e-007 1.20709e-006 -0.01283 0.00231579 8.2587e-005 -5.71023e-007 -6.61241e-007 -4.22859e-006 1.02231e-006 1.39752e-007 1.20709e-006 -0.0160493 0.00298742 0.000851277 4.51363e-007 -1.99098e-006 -3.02151e-006 1.02231e-006 1.39752e-007 1.20709e-006 -0.0125727 0.00311552 0.00281867 -5.70985e-007 -2.1691e-006 -4.22883e-006 1.02231e-006 1.39752e-007 1.20709e-006 -5.13139e-006 -1.42053e-005 -8.12963e-006 1.28812e-006 -2.71211e-006 5.66742e-007 4.38431 -9.13818 18.4376 -68.5857 -19.6361 10.6741 3.5979 -22.5718 0.96564 1.09538 -4.4885 -12.2717 9.54166e-015 1.27222e-014 6.36111e-015 3.18055e-015 9.54166e-015 -0 3.18055e-015 1.27222e-014 -6.36111e-015 9.54166e-015 1.27222e-014 6.36111e-015 0.0129793 0.00232584 -8.91134e-005 -9.54166e-015 -3.18055e-015 -6.36111e-015 9.54166e-015 1.27222e-014 6.36111e-015 0.0162994 0.00303227 -0.000868597 -3.18055e-015 -3.18055e-015 -0 9.54166e-015 1.27222e-014 6.36111e-015 0.0144878 0.00365899 -0.0032465 3.18055e-015 -1.27222e-014 9.54166e-015 9.54166e-015 1.27222e-014 6.36111e-015 3.18055e-015 9.54166e-015 -0 3.18055e-015 1.27222e-014 -6.36111e-015 -7.38912 -24.3134 -17.7854 -172.146 78.4377 169.755 17.9839 38.5747 -23.5467 7.74946e-006 3.64927e-006 -3.5073e-007 7.3524 -24.297 17.7386 172.351 78.4814 -169.948 -17.9127 38.4033 23.4757 -3.65433e-006 5.22648e-006 8.02578e-007 
